<svg width="105" height="36" viewBox="0 0 105 36" fill="none" xmlns="http://www.w3.org/2000/svg">
<path d="M7.24785 0.70459H11.2225C13.7366 0.70459 15.3169 3.38151 14.0479 5.54184L12.0605 8.92321L10.0732 12.3046C8.80419 14.4414 5.64363 14.4414 4.39856 12.3046L2.41123 8.92321L0.447855 5.54184C-0.82116 3.38151 0.759122 0.70459 3.27321 0.70459H7.24785Z" fill="url(#paint0_linear)"/>
<path d="M31.8624 4.48502H29.4202V2.08988C29.4202 0.939271 28.4624 0 27.2892 0C26.116 0 25.1343 0.939271 25.1343 2.08988V4.48502H22.692C21.5188 4.48502 20.561 5.42429 20.561 6.5749C20.561 7.72551 21.5188 8.66478 22.692 8.66478H25.1343V11.0599C25.1343 12.2105 26.092 13.1498 27.2653 13.1498C28.4385 13.1498 29.3962 12.2105 29.3962 11.0599V8.68826H31.8385C33.0117 8.68826 33.9695 7.74899 33.9695 6.59838C33.9695 5.44777 33.0357 4.48502 31.8624 4.48502Z" fill="#C2C1C0"/>
<path d="M14.4312 17.9403C18.5016 15.8034 23.3861 18.7856 23.2424 23.2941C23.0988 27.8026 18.0227 30.4795 14.0959 28.0844C10.1931 25.7362 10.3847 20.0771 14.4312 17.9403Z" fill="url(#paint1_linear)"/>
<path d="M60.4337 8.2H63.6977V25H61.0577V13.408L55.9457 25H53.6177L48.4817 13.408V25H45.8417V8.2H49.1057L54.7697 20.968L60.4337 8.2ZM67.4745 25V8.2H74.5785C76.2425 8.2 77.5305 8.6 78.4425 9.4C79.3545 10.184 79.8105 11.272 79.8105 12.664C79.8105 14.2 79.0745 15.336 77.6025 16.072C79.3465 16.872 80.2185 18.208 80.2185 20.08C80.2185 21.616 79.7305 22.824 78.7545 23.704C77.7945 24.568 76.4105 25 74.6025 25H67.4745ZM70.1145 15.064H74.2905C75.1865 15.064 75.8745 14.872 76.3545 14.488C76.8345 14.088 77.0745 13.52 77.0745 12.784C77.0745 11.248 76.1465 10.48 74.2905 10.48H70.1145V15.064ZM70.1145 22.72H74.3625C75.3865 22.72 76.1625 22.48 76.6905 22C77.2185 21.504 77.4825 20.832 77.4825 19.984C77.4825 19.168 77.2105 18.528 76.6665 18.064C76.1225 17.584 75.3545 17.344 74.3625 17.344H70.1145V22.72ZM92.7062 23.584C91.5382 24.688 90.0742 25.24 88.3142 25.24C86.5542 25.24 85.0902 24.688 83.9222 23.584C82.7542 22.464 82.1702 21.016 82.1702 19.24C82.1702 17.416 82.7462 15.944 83.8982 14.824C85.0662 13.704 86.5382 13.144 88.3142 13.144C90.0742 13.144 91.5382 13.704 92.7062 14.824C93.8742 15.944 94.4582 17.416 94.4582 19.24C94.4582 21.016 93.8742 22.464 92.7062 23.584ZM88.3142 22.936C89.3062 22.936 90.1382 22.6 90.8102 21.928C91.4822 21.24 91.8182 20.336 91.8182 19.216C91.8182 18.064 91.4822 17.152 90.8102 16.48C90.1542 15.792 89.3222 15.448 88.3142 15.448C87.3062 15.448 86.4662 15.792 85.7942 16.48C85.1382 17.152 84.8102 18.064 84.8102 19.216C84.8102 20.336 85.1382 21.24 85.7942 21.928C86.4662 22.6 87.3062 22.936 88.3142 22.936ZM102.238 25.24C100.958 25.24 99.9104 24.888 99.0944 24.184C98.2784 23.48 97.8704 22.408 97.8704 20.968V15.592H95.5664V13.384H97.2704C97.6704 12.984 97.8704 11.864 97.8704 10.024H100.438V13.384H104.278V15.592H100.438V20.968C100.438 22.312 101.19 22.984 102.694 22.984C103.206 22.984 103.718 22.888 104.23 22.696L104.566 24.856C103.862 25.112 103.086 25.24 102.238 25.24Z" fill="#101A35"/>
<defs>
<linearGradient id="paint0_linear" x1="-0.00707509" y1="7.29574" x2="14.4998" y2="7.29574" gradientUnits="userSpaceOnUse">
<stop stop-color="#F2673B"/>
<stop offset="1" stop-color="#F9A03A"/>
</linearGradient>
<linearGradient id="paint1_linear" x1="14.5313" y1="31.972" x2="18.6584" y2="18.0761" gradientUnits="userSpaceOnUse">
<stop offset="0.3735" stop-color="#2B4073"/>
<stop offset="1" stop-color="#0F1A34"/>
</linearGradient>
</defs>
</svg>
